{"title":"21 Jump Street 2012 R5 NEW LiNE XViD - INSPiRAL","uid":7230363,"size":1492367592,"categoryP":"video","categoryS":"movies","magnet":"?xt=urn:btih:c97278a0a4f60ba7027ecb174eea3f93b6bdb39c&amp;dn=21+Jump+Street+2012+R5+NEW+LiNE+XViD+-+INSPiRAL&amp;tr=udp%3A%2F%2Ftracker.openbittorrent.com%3A80&amp;tr=udp%3A%2F%2Fopen.demonii.com%3A1337&amp;tr=udp%3A%2F%2Ftracker.coppersurfer.tk%3A6969&amp;tr=udp%3A%2F%2Fexodus.desync.com%3A6969","seeders":0,"leechers":1,"uploader":".BONE.","files":4,"time":1335815844,"description":"A pair of underachieving cops are sent back to a local high school to blend in and bring down a synthetic drug ring. \n\nVideo\nID : 0\nFormat : MPEG-4 Visual\nFormat profile : Advanced Simple@L5\nFormat settings, BVOP : 2\nFormat settings, QPel : No\nFormat settings, GMC : No warppoints\nFormat settings, Matrix : Default (MPEG)\nMuxing mode : Packed bitstream\nCodec ID : XVID\nCodec ID/Hint : XviD\nDuration : 1h 45mn\nBit rate : 1 736 Kbps\nWidth : 720 pixels\nHeight : 304 pixels\nDisplay aspect ratio : 2.35:1\nFrame rate : 25.000 fps\nColor space : YUV\nChroma subsampling : 4:2:0\nBit depth : 8 bits\nScan type : Progressive\nCompression mode : Lossy\nBits/(Pixel*Frame) : 0.317\nStream size : 1.28 GiB (93%)\nWriting library : XviD 64\n\nAudio\nID : 1\nFormat : MPEG Audio\nFormat version : Version 1\nFormat profile : Layer 3\nCodec ID : 55\nCodec ID/Hint : MP3\nDuration : 1h 45mn\nBit rate mode : Constant\nBit rate : 128 Kbps\nChannel(s) : 2 channels\nSampling rate : 48.0 KHz\nCompression mode : Lossy\nStream size : 96.6 MiB (7%)\nAlignment : Split accross interleaves\nInterleave, duration : 40 ms (1.00 video frame)\nInterleave, preload duration : 500 ms\n\nNOTES:\n\nOk here we go we our version which is not a re-encode of the dvdrip but ripped straight from the DVDR\nThe dvdr was ok but was a bit lifeless and also had a faint line 2pixels under the top black border.\nAudio is new and different too all other releases and is 10x better aswell.\n\nVideo ....made a script too crop the dvd inc the 2 etxra pixels too remove that faint line,\nresized, changed contrast,brightness,chroma and rgb levels.\nAlso used a heavy noise filter and finally added some sharpness back into it.\n\nAudio ....wow, top line audio and even better after some lovin in AA.\nSync was pretty easy .... 1 cut hey presto.","torrent":{"xt":"urn:btih:c97278a0a4f60ba7027ecb174eea3f93b6bdb39c","amp;dn":"21+Jump+Street+2012+R5+NEW+LiNE+XViD+-+INSPiRAL","amp;tr":["udp%3A%2F%2Ftracker.openbittorrent.com%3A80","udp%3A%2F%2Fopen.demonii.com%3A1337","udp%3A%2F%2Ftracker.coppersurfer.tk%3A6969","udp%3A%2F%2Fexodus.desync.com%3A6969"],"infoHash":"c97278a0a4f60ba7027ecb174eea3f93b6bdb39c","infoHashBuffer":{"type":"Buffer","data":[201,114,120,160,164,246,11,167,2,126,203,23,78,234,63,147,182,189,179,156]},"announce":[],"urlList":[]}}